v 0 1 0
v 0.866025 1 0.5
v 0.87462 1 0.48481
v 0.882948 1 0.469472
v 0.891007 1 0.45399
v 0.898794 1 0.438371
v 0.906308 1 0.422618
v 0.913545 1 0.406737
v 0.920505 1 0.390731
v 0.927184 1 0.374607
v 0.93358 1 0.358368
v 0.939693 1 0.34202
v 0.945519 1 0.325568
v 0.951057 1 0.309017
v 0.956305 1 0.292372
v 0.961262 1 0.275637
v 0.965926 1 0.258819
v 0.970296 1 0.241922
v 0.97437 1 0.224951
v 0.978148 1 0.207912
v 0.981627 1 0.190809
v 0.984808 1 0.173648
v 0.987688 1 0.156434
v 0.990268 1 0.139173
v 0.992546 1 0.121869
v 0.994522 1 0.104528
v 0.996195 1 0.0871557
v 0.997564 1 0.0697565
v 0.99863 1 0.052336
v 0.999391 1 0.0348995
v 0.999848 1 0.0174524
v 1 1 0
v 0 -1 0
v 0.866025 -1 0.5
v 0.87462 -1 0.48481
v 0.882948 -1 0.469472
v 0.891007 -1 0.45399
v 0.898794 -1 0.438371
v 0.906308 -1 0.422618
v 0.913545 -1 0.406737
v 0.920505 -1 0.390731
v 0.927184 -1 0.374607
v 0.93358 -1 0.358368
v 0.939693 -1 0.34202
v 0.945519 -1 0.325568
v 0.951057 -1 0.309017
v 0.956305 -1 0.292372
v 0.961262 -1 0.275637
v 0.965926 -1 0.258819
v 0.970296 -1 0.241922
v 0.97437 -1 0.224951
v 0.978148 -1 0.207912
v 0.981627 -1 0.190809
v 0.984808 -1 0.173648
v 0.987688 -1 0.156434
v 0.990268 -1 0.139173
v 0.992546 -1 0.121869
v 0.994522 -1 0.104528
v 0.996195 -1 0.0871557
v 0.997564 -1 0.0697565
v 0.99863 -1 0.052336
v 0.999391 -1 0.0348995
v 0.999848 -1 0.0174524
v 1 -1 0
vn 0 1 0
vn 0 1 0
vn 0 1 0
vn 0 1 0
vn 0 1 0
vn 0 1 0
vn 0 1 0
vn 0 1 0
vn 0 1 0
vn 0 1 0
vn 0 1 0
vn 0 1 0
vn 0 1 0
vn 0 1 0
vn 0 1 0
vn 0 1 0
vn 0 1 0
vn 0 1 0
vn 0 1 0
vn 0 1 0
vn 0 1 0
vn 0 1 0
vn 0 1 0
vn 0 1 0
vn 0 1 0
vn 0 1 0
vn 0 1 0
vn 0 1 0
vn 0 1 0
vn 0 1 0
vn 0 -1 0
vn 0 -1 0
vn 0 -1 0
vn 0 -1 0
vn 0 -1 0
vn 0 -1 0
vn 0 -1 0
vn 0 -1 0
vn 0 -1 0
vn 0 -1 0
vn 0 -1 0
vn 0 -1 0
vn 0 -1 0
vn 0 -1 0
vn 0 -1 0
vn 0 -1 0
vn 0 -1 0
vn 0 -1 0
vn 0 -1 0
vn 0 -1 0
vn 0 -1 0
vn 0 -1 0
vn 0 -1 0
vn 0 -1 0
vn 0 -1 0
vn 0 -1 0
vn 0 -1 0
vn 0 -1 0
vn 0 -1 0
vn 0 -1 0
vn -0.5 0 0.866025
vn -0.5 0 0.866025
vn 0.870355 0 0.492425
vn 0.870355 0 0.492425
vn 0.878818 0 0.477157
vn 0.878818 0 0.477157
vn 0.88701 0 0.46175
vn 0.88701 0 0.46175
vn 0.894934 0 0.446198
vn 0.894934 0 0.446198
vn 0.902586 0 0.430509
vn 0.902586 0 0.430509
vn 0.909961 0 0.414693
vn 0.909961 0 0.414693
vn 0.917059 0 0.398751
vn 0.917059 0 0.398751
vn 0.92388 0 0.382683
vn 0.92388 0 0.382683
vn 0.930418 0 0.3665
vn 0.930418 0 0.3665
vn 0.936672 0 0.350208
vn 0.936672 0 0.350208
vn 0.942642 0 0.333806
vn 0.942642 0 0.333806
vn 0.948323 0 0.317307
vn 0.948323 0 0.317307
vn 0.953717 0 0.300706
vn 0.953717 0 0.300706
vn 0.95882 0 0.284014
vn 0.95882 0 0.284014
vn 0.963631 0 0.267238
vn 0.963631 0 0.267238
vn 0.968147 0 0.250381
vn 0.968147 0 0.250381
vn 0.97237 0 0.233445
vn 0.97237 0 0.233445
vn 0.976296 0 0.216441
vn 0.976296 0 0.216441
vn 0.979925 0 0.199366
vn 0.979925 0 0.199366
vn 0.983255 0 0.182235
vn 0.983255 0 0.182235
vn 0.986285 0 0.16505
vn 0.986285 0 0.16505
vn 0.989016 0 0.147807
vn 0.989016 0 0.147807
vn 0.991445 0 0.130527
vn 0.991445 0 0.130527
vn 0.993572 0 0.113205
vn 0.993572 0 0.113205
vn 0.995396 0 0.0958458
vn 0.995396 0 0.0958458
vn 0.996917 0 0.0784594
vn 0.996917 0 0.0784594
vn 0.998135 0 0.0610456
vn 0.998135 0 0.0610456
vn 0.999048 0 0.0436215
vn 0.999048 0 0.0436215
vn 0.999657 0 0.026177
vn 0.999657 0 0.026177
vn 0.999962 0 0.00872568
vn 0.999962 0 0.00872568
vn 0 -0 -1
vn -0 0 -1
f 1/0/1 2/0/1 3/0/1
f 1/0/2 3/0/2 4/0/2
f 1/0/3 4/0/3 5/0/3
f 1/0/4 5/0/4 6/0/4
f 1/0/5 6/0/5 7/0/5
f 1/0/6 7/0/6 8/0/6
f 1/0/7 8/0/7 9/0/7
f 1/0/8 9/0/8 10/0/8
f 1/0/9 10/0/9 11/0/9
f 1/0/10 11/0/10 12/0/10
f 1/0/11 12/0/11 13/0/11
f 1/0/12 13/0/12 14/0/12
f 1/0/13 14/0/13 15/0/13
f 1/0/14 15/0/14 16/0/14
f 1/0/15 16/0/15 17/0/15
f 1/0/16 17/0/16 18/0/16
f 1/0/17 18/0/17 19/0/17
f 1/0/18 19/0/18 20/0/18
f 1/0/19 20/0/19 21/0/19
f 1/0/20 21/0/20 22/0/20
f 1/0/21 22/0/21 23/0/21
f 1/0/22 23/0/22 24/0/22
f 1/0/23 24/0/23 25/0/23
f 1/0/24 25/0/24 26/0/24
f 1/0/25 26/0/25 27/0/25
f 1/0/26 27/0/26 28/0/26
f 1/0/27 28/0/27 29/0/27
f 1/0/28 29/0/28 30/0/28
f 1/0/29 30/0/29 31/0/29
f 1/0/30 31/0/30 32/0/30
f 33/0/31 35/0/31 34/0/31
f 33/0/32 36/0/32 35/0/32
f 33/0/33 37/0/33 36/0/33
f 33/0/34 38/0/34 37/0/34
f 33/0/35 39/0/35 38/0/35
f 33/0/36 40/0/36 39/0/36
f 33/0/37 41/0/37 40/0/37
f 33/0/38 42/0/38 41/0/38
f 33/0/39 43/0/39 42/0/39
f 33/0/40 44/0/40 43/0/40
f 33/0/41 45/0/41 44/0/41
f 33/0/42 46/0/42 45/0/42
f 33/0/43 47/0/43 46/0/43
f 33/0/44 48/0/44 47/0/44
f 33/0/45 49/0/45 48/0/45
f 33/0/46 50/0/46 49/0/46
f 33/0/47 51/0/47 50/0/47
f 33/0/48 52/0/48 51/0/48
f 33/0/49 53/0/49 52/0/49
f 33/0/50 54/0/50 53/0/50
f 33/0/51 55/0/51 54/0/51
f 33/0/52 56/0/52 55/0/52
f 33/0/53 57/0/53 56/0/53
f 33/0/54 58/0/54 57/0/54
f 33/0/55 59/0/55 58/0/55
f 33/0/56 60/0/56 59/0/56
f 33/0/57 61/0/57 60/0/57
f 33/0/58 62/0/58 61/0/58
f 33/0/59 63/0/59 62/0/59
f 33/0/60 64/0/60 63/0/60
f 1/0/61 33/0/61 34/0/61
f 1/0/62 34/0/62 2/0/62
f 2/0/63 34/0/63 35/0/63
f 2/0/64 35/0/64 3/0/64
f 3/0/65 35/0/65 36/0/65
f 3/0/66 36/0/66 4/0/66
f 4/0/67 36/0/67 37/0/67
f 4/0/68 37/0/68 5/0/68
f 5/0/69 37/0/69 38/0/69
f 5/0/70 38/0/70 6/0/70
f 6/0/71 38/0/71 39/0/71
f 6/0/72 39/0/72 7/0/72
f 7/0/73 39/0/73 40/0/73
f 7/0/74 40/0/74 8/0/74
f 8/0/75 40/0/75 41/0/75
f 8/0/76 41/0/76 9/0/76
f 9/0/77 41/0/77 42/0/77
f 9/0/78 42/0/78 10/0/78
f 10/0/79 42/0/79 43/0/79
f 10/0/80 43/0/80 11/0/80
f 11/0/81 43/0/81 44/0/81
f 11/0/82 44/0/82 12/0/82
f 12/0/83 44/0/83 45/0/83
f 12/0/84 45/0/84 13/0/84
f 13/0/85 45/0/85 46/0/85
f 13/0/86 46/0/86 14/0/86
f 14/0/87 46/0/87 47/0/87
f 14/0/88 47/0/88 15/0/88
f 15/0/89 47/0/89 48/0/89
f 15/0/90 48/0/90 16/0/90
f 16/0/91 48/0/91 49/0/91
f 16/0/92 49/0/92 17/0/92
f 17/0/93 49/0/93 50/0/93
f 17/0/94 50/0/94 18/0/94
f 18/0/95 50/0/95 51/0/95
f 18/0/96 51/0/96 19/0/96
f 19/0/97 51/0/97 52/0/97
f 19/0/98 52/0/98 20/0/98
f 20/0/99 52/0/99 53/0/99
f 20/0/100 53/0/100 21/0/100
f 21/0/101 53/0/101 54/0/101
f 21/0/102 54/0/102 22/0/102
f 22/0/103 54/0/103 55/0/103
f 22/0/104 55/0/104 23/0/104
f 23/0/105 55/0/105 56/0/105
f 23/0/106 56/0/106 24/0/106
f 24/0/107 56/0/107 57/0/107
f 24/0/108 57/0/108 25/0/108
f 25/0/109 57/0/109 58/0/109
f 25/0/110 58/0/110 26/0/110
f 26/0/111 58/0/111 59/0/111
f 26/0/112 59/0/112 27/0/112
f 27/0/113 59/0/113 60/0/113
f 27/0/114 60/0/114 28/0/114
f 28/0/115 60/0/115 61/0/115
f 28/0/116 61/0/116 29/0/116
f 29/0/117 61/0/117 62/0/117
f 29/0/118 62/0/118 30/0/118
f 30/0/119 62/0/119 63/0/119
f 30/0/120 63/0/120 31/0/120
f 31/0/121 63/0/121 64/0/121
f 31/0/122 64/0/122 32/0/122
f 32/0/123 64/0/123 33/0/123
f 32/0/124 33/0/124 1/0/124
